<svg xmlns="http://www.w3.org/2000/svg" width="16.704" height="16.704" viewBox="0 0 16.704 16.704">
  <path id="Icon_awesome-align-right" data-name="Icon awesome-align-right" d="M.6,9.409h15.51a.6.6,0,0,0,.6-.6V7.619a.6.6,0,0,0-.6-.6H.6a.6.6,0,0,0-.6.6V8.812A.6.6,0,0,0,.6,9.409Zm15.51,7.159H.6a.6.6,0,0,0-.6.6v1.193a.6.6,0,0,0,.6.6h15.51a.6.6,0,0,0,.6-.6V17.164A.6.6,0,0,0,16.107,16.567ZM16.225,2.25H6.444a.478.478,0,0,0-.478.478V4.158a.478.478,0,0,0,.478.478h9.781a.478.478,0,0,0,.478-.478V2.728a.478.478,0,0,0-.478-.478Zm0,9.545H6.444a.478.478,0,0,0-.478.478V13.7a.478.478,0,0,0,.478.478h9.781A.478.478,0,0,0,16.7,13.7V12.273a.478.478,0,0,0-.478-.478Z" transform="translate(0 -2.25)" fill="#fff"/>
</svg>
