<svg xmlns="http://www.w3.org/2000/svg" width="32.594" height="38.521" viewBox="0 0 32.594 38.521">
  <g id="android-logo" transform="translate(-42.544 0)">
    <g id="Group_26" data-name="Group 26" transform="translate(42.544 0)">
      <path id="Path_7" data-name="Path 7" d="M44.928,179.141a2.3,2.3,0,0,0-1.69.694,2.273,2.273,0,0,0-.694,1.667v9.954a2.371,2.371,0,0,0,2.384,2.385,2.264,2.264,0,0,0,1.679-.694,2.321,2.321,0,0,0,.683-1.69V181.5a2.371,2.371,0,0,0-2.362-2.361Z" transform="translate(-42.544 -166.664)" fill="#ff971d"/>
      <path id="Path_8" data-name="Path 8" d="M138.624,3.542,140.267.51a.3.3,0,0,0-.115-.463.321.321,0,0,0-.463.139l-1.667,3.056a11.611,11.611,0,0,0-9.306,0L127.049.185a.321.321,0,0,0-.463-.139.3.3,0,0,0-.115.463l1.644,3.032A10.15,10.15,0,0,0,124.133,7.1a8.976,8.976,0,0,0-1.482,4.989h21.413A8.978,8.978,0,0,0,142.582,7.1,10.193,10.193,0,0,0,138.624,3.542Zm-9.5,4.41a.868.868,0,0,1-.637.267.828.828,0,0,1-.625-.267.923.923,0,0,1,0-1.273.831.831,0,0,1,.625-.266.9.9,0,0,1,.637,1.539Zm9.757,0a.83.83,0,0,1-.625.267.9.9,0,0,1,0-1.806.832.832,0,0,1,.625.266.923.923,0,0,1,0,1.273Z" transform="translate(-117.071 0)" fill="#ff971d"/>
      <path id="Path_9" data-name="Path 9" d="M123.971,200.868a2.528,2.528,0,0,0,2.546,2.546h1.713l.023,5.255a2.3,2.3,0,0,0,.694,1.69,2.273,2.273,0,0,0,1.667.694A2.371,2.371,0,0,0,133,208.669v-5.255h3.195v5.255a2.384,2.384,0,1,0,4.768,0v-5.255H142.7a2.528,2.528,0,0,0,2.523-2.546V185.45h-21.25Z" transform="translate(-118.299 -172.533)" fill="#ff971d"/>
      <path id="Path_10" data-name="Path 10" d="M444.737,179.141a2.294,2.294,0,0,0-1.667.683,2.264,2.264,0,0,0-.694,1.678v9.954a2.3,2.3,0,0,0,.694,1.69,2.273,2.273,0,0,0,1.667.694,2.371,2.371,0,0,0,2.384-2.385V181.5a2.263,2.263,0,0,0-.694-1.678A2.322,2.322,0,0,0,444.737,179.141Z" transform="translate(-414.527 -166.664)" fill="#ff971d"/>
    </g>
  </g>
</svg>
