<svg xmlns="http://www.w3.org/2000/svg" width="41.548" height="27.521" viewBox="0 0 41.548 27.521">
  <g id="fun" transform="translate(0 -9.052)">
    <path id="Path_11" data-name="Path 11" d="M37.833,13.919C32.345,4.9,24.078,11.176,24.078,11.176a4.285,4.285,0,0,1-2.2.74l-2.214,0a4.256,4.256,0,0,1-2.2-.738S9.2,4.905,3.716,13.922A27.819,27.819,0,0,0,.44,32.75c.387,2.4,1.664,4.007,4.074,3.806s7.618-6.473,7.618-6.473a2.972,2.972,0,0,1,2-.939l13.275,0a2.967,2.967,0,0,1,2,.939s5.216,6.272,7.622,6.473,3.686-1.4,4.071-3.806A27.811,27.811,0,0,0,37.833,13.919ZM15.785,21.258H12.939V24a2.653,2.653,0,0,1-1.536.449,1.855,1.855,0,0,1-1.353-.5V21.259H7.362a2.162,2.162,0,0,1-.425-1.25,2.867,2.867,0,0,1,.371-1.638h2.847V15.525a3.1,3.1,0,0,1,1.428-.29,3.765,3.765,0,0,1,1.46.343l-.012,2.792H15.72a2.677,2.677,0,0,1,.508,1.331A3.362,3.362,0,0,1,15.785,21.258Zm13.057,3.127A2.253,2.253,0,1,1,31.1,22.132,2.25,2.25,0,0,1,28.842,24.385Zm0-6.2A2.253,2.253,0,1,1,31.1,15.934,2.249,2.249,0,0,1,28.842,18.186Zm5.611,3.328a2.253,2.253,0,1,1,2.254-2.253A2.249,2.249,0,0,1,34.453,21.514Z" transform="translate(0)" fill="#ff971d"/>
  </g>
</svg>
