<svg xmlns="http://www.w3.org/2000/svg" width="27.517" height="33.796" viewBox="0 0 27.517 33.796">
  <g id="mac-os-logo" transform="translate(-1.282)">
    <g id="Group_31" data-name="Group 31" transform="translate(1.282)">
      <path id="Path_12" data-name="Path 12" d="M24.265,13.135A7.643,7.643,0,0,1,27.913,6.7a7.888,7.888,0,0,0-6.18-3.345C19.105,3.086,16.6,4.9,15.263,4.9S11.87,3.392,9.688,3.431A8.278,8.278,0,0,0,2.7,7.667C-.283,12.839,1.933,20.5,4.837,24.7c1.42,2.052,3.115,4.356,5.336,4.275,2.14-.086,2.948-1.386,5.536-1.386s3.315,1.386,5.578,1.344c2.3-.044,3.761-2.094,5.169-4.15A18.806,18.806,0,0,0,28.8,19.974,7.478,7.478,0,0,1,24.265,13.135Z" transform="translate(-1.282 4.821)" fill="#ff971d"/>
      <path id="Path_13" data-name="Path 13" d="M11.92,5.4A7.446,7.446,0,0,0,13.678,0,7.565,7.565,0,0,0,8.7,2.559,7.084,7.084,0,0,0,6.908,7.787,6.266,6.266,0,0,0,11.92,5.4Z" transform="translate(6.807)" fill="#ff971d"/>
    </g>
  </g>
</svg>
